<svg width="44" height="43" viewBox="0 0 44 43" fill="none" xmlns="http://www.w3.org/2000/svg">
<path d="M32.38 14.258C32.215 14.258 32.049 14.262 31.886 14.27C32.276 13.158 32.491 11.964 32.491 10.721C32.491 4.80102 27.691 -0.000976562 21.77 -0.000976562C15.848 -0.000976562 11.048 4.80102 11.048 10.721C11.048 11.964 11.262 13.158 11.652 14.27C11.489 14.262 11.324 14.258 11.159 14.258C5.23699 14.258 0.437988 19.058 0.437988 24.977C0.437988 30.899 5.23699 35.698 11.159 35.698C14.651 35.698 17.747 34.025 19.704 31.441C18.534 35.974 16.979 40.697 15.295 42.22H21.72H21.817H28.243C26.561 40.697 25.008 35.981 23.836 31.449C25.794 34.028 28.892 35.697 32.38 35.697C38.299 35.697 43.1 30.898 43.1 24.976C43.1 19.058 38.299 14.258 32.38 14.258ZM22.263 21.428C22.247 21.478 22.17 21.43 22.17 21.43C22.201 21.43 22.232 21.43 22.263 21.428Z" fill="#2E2E2E"/>
</svg>
