<svg width="30" height="30" viewBox="0 0 30 30" fill="none" xmlns="http://www.w3.org/2000/svg">
<path d="M28 6.40019L19.4 15.0002L28 23.6002C29.4 25.2002 29.4 26.7002 27.9 28.0002C26.4 29.4002 24.9 29.4002 23.6 28.0002L15 19.4002L6.39995 28.0002C4.79995 29.4002 3.29995 29.4002 1.99995 28.0002C0.699951 26.6002 0.599951 25.2002 1.99995 23.6002L10.6 15.0002L1.99995 6.40019C0.599951 4.80019 0.599951 3.3002 1.99995 2.0002C3.39995 0.700195 4.79995 0.600195 6.39995 2.0002L15 10.6002L23.6 2.0002C25 0.600195 26.4 0.600195 27.9 2.0002C29.5 3.3002 29.5 4.80019 28 6.40019Z" fill="white"/>
</svg>
